<?xml version="1.0" encoding="UTF-8" standalone="no"?>
<svg
   xmlns:dc="http://purl.org/dc/elements/1.1/"
   xmlns:cc="http://creativecommons.org/ns#"
   xmlns:rdf="http://www.w3.org/1999/02/22-rdf-syntax-ns#"
   xmlns:svg="http://www.w3.org/2000/svg"
   xmlns="http://www.w3.org/2000/svg"
   xmlns:xlink="http://www.w3.org/1999/xlink"
   id="svg2575"
   version="1.1"
   viewBox="0 0 253.99999 152.4"
   height="576"
   width="960">
  <defs
     id="defs2569">
    <linearGradient
       gradientUnits="userSpaceOnUse"
       y2="484.55981"
       x2="2184.8442"
       y1="999.00195"
       x1="2047"
       id="linearGradient2533"
       xlink:href="#linearGradient2529"
       gradientTransform="matrix(0.26458333,0,0,0.26458333,-541.60208,32.6802)" />
    <linearGradient
       id="linearGradient2529">
      <stop
         id="stop2525"
         offset="0"
         style="stop-color:#e9e9ed;stop-opacity:1;" />
      <stop
         id="stop2527"
         offset="1"
         style="stop-color:#e9e9ed;stop-opacity:0;" />
    </linearGradient>
  </defs>
  <metadata
     id="metadata2572">
    <rdf:RDF>
      <cc:Work
         rdf:about="">
        <dc:format>image/svg+xml</dc:format>
        <dc:type
           rdf:resource="http://purl.org/dc/dcmitype/StillImage" />
        <dc:title></dc:title>
      </cc:Work>
    </rdf:RDF>
  </metadata>
  <g
     transform="translate(0,-144.59998)"
     id="layer1">
    <path
       id="path2484"
       d="m 6.35,144.59998 -6.35,6.35 v 6.35 l 12.7,-12.7 z m 12.7,0 -19.05,19.05 v 6.35 l 25.4,-25.4 z m 12.7,0 C 21.166693,155.1833 10.583307,165.76667 0,176.34998 v 6.35 c 12.7,-12.70002 25.399974,-25.40001 38.1,-38.1 z m 12.7,0 -19.05,19.05 -6.35,6.35 -19.05,19.05 v 6.35 l 25.4,-25.4 25.4,-25.4 z m 12.7,0 -6.35,6.35 -19.05,19.04948 -6.35,6.35 v 5.3e-4 l -19.05,19.04948 -6.35,6.35 v 6.35 l 12.7,-12.7 12.7,-12.69948 v -5.3e-4 l 12.7,-12.7 12.7,-12.69948 12.7,-12.7 z m 12.7,0 -19.05,19.05 -6.35,6.35 -19.05,19.04948 v 5.3e-4 l -6.349471,6.34948 V 195.4 l -19.05,19.04948 v 6.35 L 25.4,195.39998 v -5.3e-4 l 25.4,-25.39948 v -5.3e-4 l 25.4,-25.39948 z m 12.7,0 -6.35,6.35 -19.05,19.05 -6.35,6.35 -19.05,19.05 -6.35,6.35 -19.05,19.05 v 0 l -6.35,6.35 v 6.35 l 12.7,-12.7 v 0 l 12.7,-12.7 12.7,-12.7 12.7,-12.7 12.7,-12.7 12.7,-12.7 12.7,-12.7 z m 12.7,0 -19.05,19.05 -6.35,6.35 -19.05,19.05 -6.35,6.35 -19.05,19.05 -6.35,6.35 v 0 L 0,239.84998 v 6.35 l 25.4,-25.4 v 0 l 25.4,-25.4 25.4,-25.4 25.4,-25.4 z m 12.7,0 -6.35,6.35 -19.05,19.05 -6.35,6.35 -19.05,19.05 -6.35,6.35 -19.05,19.05 v 0 C 21.166693,231.3833 10.583307,241.96667 0,252.54998 v 6.35 c 12.7,-12.70002 25.399974,-25.40001 38.1,-38.1 v 0 l 12.7,-12.7 12.7,-12.7 12.7,-12.7 12.7,-12.7 12.7,-12.7 12.7,-12.7 z m 12.7,0 -19.05,19.05 -6.35,6.35 -19.05,19.05 -6.35,6.35 -19.05,19.05 -6.35,6.35 v 0 l -19.05,19.05 -6.35,6.35 -19.05,19.05 v 6.35 l 25.4,-25.4 25.4,-25.4 v 0 l 25.4,-25.4 25.4,-25.4 25.4,-25.4 z m 12.7,0 -6.35,6.35 -19.05,19.05 -6.35,6.35 -19.05,19.05 -6.35,6.35 -19.05,19.05 v 0 l -6.35,6.35 -19.05,19.04948 -6.35,6.35 v 5.3e-4 l -19.05,19.04948 -6.35,6.35 v 6.35 l 12.7,-12.7 12.7,-12.69948 v -5.3e-4 l 12.7,-12.7 12.7,-12.69948 12.7,-12.7 v 0 l 12.7,-12.7 12.7,-12.7 12.7,-12.7 12.7,-12.7 12.7,-12.7 12.7,-12.7 z m 12.7,0 -19.05,19.05 -6.35,6.35 -19.05,19.05 -6.35,6.35 -19.05,19.05 -6.35,6.35 v 0 l -19.05,19.05 -6.35,6.35 -19.05,19.04948 v 5.3e-4 l -6.35,6.34947 v 5.3e-4 L 0,290.64947 v 6.35 l 25.399471,-25.39948 v -5.3e-4 l 25.4,-25.39948 v -5.3e-4 l 25.4,-25.39948 v 0 l 25.399999,-25.4 25.4,-25.4 25.4,-25.4 z m 12.7,0 -6.35,6.35 -19.05,19.05 -6.35,6.35 -19.05,19.05 -6.35,6.35 -19.05,19.05 v 0 l -6.35,6.35 -19.05,19.05 -6.35,6.35 -19.05,19.05 -6.35,6.35 -19.05,19.05 h 6.35 l 12.7,-12.7 12.7,-12.7 12.7,-12.7 12.7,-12.7 12.7,-12.7 12.7,-12.7 v 0 l 12.7,-12.7 12.7,-12.7 12.7,-12.7 12.7,-12.7 12.7,-12.7 12.7,-12.7 z m 12.7,0 -19.05,19.05 -6.35,6.35 -19.05,19.05 -6.35,6.35 -19.05,19.05 -6.35,6.35 v 0 l -19.05,19.05 -6.35,6.35 -19.05,19.05 -6.35,6.35 -19.05,19.05 -6.35,6.35 h 6.35 l 25.4,-25.4 25.4,-25.4 25.4,-25.4 v 0 l 25.4,-25.4 25.4,-25.4 25.4,-25.4 z m 12.7,0 -6.35,6.35 -19.05,19.05 -6.35,6.35 -19.05,19.05 -6.35,6.35 -19.05,19.05 v 0 l -6.35,6.35 -19.05,19.05 -6.35,6.35 -19.05,19.05 -6.35,6.35 -19.05,19.05 h 6.35 l 12.7,-12.7 12.7,-12.7 12.7,-12.7 12.7,-12.7 12.7,-12.7 12.7,-12.7 v 0 l 12.7,-12.7 12.7,-12.7 12.7,-12.7 12.7,-12.7 12.7,-12.7 12.7,-12.7 z m 12.7,0 -19.05,19.05 -6.35,6.35 -19.05,19.05 -6.35,6.35 -19.05,19.05 -6.35,6.35 v 0 l -19.05,19.05 -6.35,6.35 -19.05,19.05 -6.35,6.35 -19.05,19.05 -6.35,6.35 h 6.35 l 25.4,-25.4 25.4,-25.4 25.4,-25.4 v 0 l 25.4,-25.4 25.4,-25.4 25.4,-25.4 z m 12.7,0 -6.35,6.35 -19.05,19.05 -6.35,6.35 -19.05,19.05 -6.35,6.35 -19.05,19.05 v 0 l -6.35,6.35 -19.05,19.05 -6.35,6.35 -19.05,19.05 -6.35,6.35 -19.05,19.05 h 6.35 l 12.7,-12.7 12.7,-12.7 12.7,-12.7 12.7,-12.7 12.7,-12.7 12.7,-12.7 v 0 l 12.7,-12.7 12.7,-12.7 12.7,-12.7 12.7,-12.7 12.7,-12.7 12.7,-12.7 z m 12.7,0 -19.05,19.05 -6.35,6.35 -19.05,19.05 -6.35,6.35 -19.05,19.05 -6.35,6.35 v 0 l -19.05,19.05 -6.35,6.35 -19.05,19.05 -6.35,6.35 -19.05,19.05 -6.35,6.35 h 6.35 l 25.4,-25.4 25.4,-25.4 25.4,-25.4 v 0 l 25.4,-25.4 25.4,-25.4 25.4,-25.4 z m 12.7,0 -6.35,6.35 -19.05,19.05 -6.35,6.35 -19.05,19.05 -6.35,6.35 -19.05,19.05 v 0 l -6.35,6.35 -19.05,19.05 -6.35,6.35 -19.05,19.05 -6.35,6.35 -19.05,19.05 h 6.35 l 12.7,-12.7 12.7,-12.7 12.7,-12.7 12.7,-12.7 12.7,-12.7 12.7,-12.7 v 0 l 12.7,-12.7 12.7,-12.7 12.7,-12.7 12.7,-12.7 12.7,-12.7 12.7,-12.7 z m 12.7,0 -19.05,19.05 -6.35,6.35 -19.05,19.05 -6.35,6.35 -19.05,19.05 -6.35,6.35 v 0 l -19.05,19.05 -6.35,6.35 -19.05,19.05 -6.35,6.35 -19.05,19.05 -6.35,6.35 h 6.35 l 25.4,-25.4 25.4,-25.4 25.4,-25.4 v 0 l 25.4,-25.4 25.4,-25.4 25.4,-25.4 z m 6.35,6.35 -19.05,19.05 -6.35,6.35 -19.05,19.05 -6.35,6.35 -19.05,19.05 v 0 l -6.35,6.35 -19.05,19.05 -6.35,6.35 -19.05,19.05 -6.35,6.35 -19.05,19.05 h 6.35 l 12.7,-12.7 12.7,-12.7 12.7,-12.7 12.7,-12.7 12.7,-12.7 12.7,-12.7 v 0 l 12.7,-12.7 12.7,-12.7 12.7,-12.7 12.7,-12.7 12.7,-12.7 z m 0,12.7 -6.35,6.35 -19.05,19.05 -6.35,6.35 -19.05,19.05 -6.35,6.35 v 0 l -19.05,19.05 -6.35,6.35 -19.05,19.05 -6.35,6.35 -19.05,19.05 -6.35,6.35 H 127 l 25.4,-25.4 25.4,-25.4 25.4,-25.4 v 0 l 25.4,-25.4 25.4,-25.4 z m 0,12.7 -19.05,19.05 -6.35,6.35 -19.05,19.05 v 0 l -6.35,6.35 -19.05,19.05 -6.35,6.35 -19.05,19.05 -6.35,6.35 -19.05,19.05 h 6.35 l 12.7,-12.7 12.7,-12.7 12.7,-12.7 12.7,-12.7 12.7,-12.7 12.7,-12.7 v 0 l 12.7,-12.7 12.7,-12.7 12.7,-12.7 z m 0,12.7 -6.35,6.35 -19.05,19.05 -6.35,6.35 v 0 l -19.05,19.05 -6.35,6.35 -19.05,19.05 -6.35,6.35 -19.05,19.05 -6.35,6.35 h 6.35 l 25.4,-25.4 25.4,-25.4 25.4,-25.4 v 0 l 25.4,-25.4 z m 0,12.7 -19.05,19.05 v 0 l -6.35,6.35 -19.05,19.05 -6.35,6.35 -19.05,19.05 -6.35,6.35 -19.05,19.05 h 6.35 l 12.7,-12.7 12.7,-12.7 12.7,-12.7 12.7,-12.7 12.7,-12.7 12.7,-12.7 v 0 l 12.7,-12.7 z m 0,12.7 -6.35,6.35 v 0 l -19.05,19.05 -6.35,6.35 -19.05,19.05 -6.35,6.35 -19.05,19.05 -6.35,6.35 h 6.35 l 25.4,-25.4 25.4,-25.4 25.4,-25.4 v 0 z m 0,12.7 -19.05,19.05 -6.35,6.35 -19.05,19.05 -6.35,6.35 -19.05,19.05 h 6.35 l 12.7,-12.7 12.7,-12.7 12.7,-12.7 12.7,-12.7 12.7,-12.7 z m 0,12.7 -6.35,6.35 -19.05,19.05 -6.35,6.35 -19.05,19.05 -6.35,6.35 h 6.35 l 25.4,-25.4 25.4,-25.4 z m 0,12.7 -19.05,19.05 -6.35,6.35 -19.05,19.05 h 6.35 l 12.7,-12.7 12.7,-12.7 12.7,-12.7 z m 0,12.7 -6.35,6.35 -19.05,19.05 -6.35,6.35 h 6.35 l 25.4,-25.4 z m 0,12.7 -19.05,19.05 h 6.35 l 12.7,-12.7 z m 0,12.7 -6.35,6.35 H 254 Z"
       style="opacity:0.5;fill:url(#linearGradient2533);fill-opacity:1;stroke:none;stroke-width:3.17499828px;stroke-linecap:butt;stroke-linejoin:miter;stroke-opacity:1" />
  </g>
</svg>
