<?xml version="1.0" encoding="UTF-8" standalone="no"?>
<svg
   xmlns:dc="http://purl.org/dc/elements/1.1/"
   xmlns:cc="http://creativecommons.org/ns#"
   xmlns:rdf="http://www.w3.org/1999/02/22-rdf-syntax-ns#"
   xmlns:svg="http://www.w3.org/2000/svg"
   xmlns="http://www.w3.org/2000/svg"
   style="width:24px;height:24px"
   viewBox="0 0 24 24"
   version="1.1"
   id="svg4">
  <metadata
     id="metadata10">
    <rdf:RDF>
      <cc:Work
         rdf:about="">
        <dc:format>image/svg+xml</dc:format>
        <dc:type
           rdf:resource="http://purl.org/dc/dcmitype/StillImage" />
        <dc:title></dc:title>
      </cc:Work>
    </rdf:RDF>
  </metadata>
  <defs
     id="defs8" />
  <path
     id="rect837"
     d="M 0,0 H 24 V 24 H 0 Z"
     style="font-variation-settings:normal;opacity:1;vector-effect:none;fill:#dad6dd;fill-opacity:1;stroke-width:1.88976383" />
  <path
     id="path832"
     d="M 12 4 A 8 8 0 0 0 4 12 A 8 8 0 0 0 12 20 A 8 8 0 0 0 20 12 A 8 8 0 0 0 12 4 z M 12 6 A 6 6 0 0 1 18 12 A 6 6 0 0 1 12 18 A 6 6 0 0 1 6 12 A 6 6 0 0 1 12 6 z "
     style="font-variation-settings:normal;opacity:1;vector-effect:none;fill:#b4adb9;stroke-width:1.88976383;fill-opacity:1" />
</svg>
