<?xml version="1.0" encoding="UTF-8" standalone="no"?>
<svg
   xmlns:dc="http://purl.org/dc/elements/1.1/"
   xmlns:cc="http://creativecommons.org/ns#"
   xmlns:rdf="http://www.w3.org/1999/02/22-rdf-syntax-ns#"
   xmlns:svg="http://www.w3.org/2000/svg"
   xmlns="http://www.w3.org/2000/svg"
   xmlns:sodipodi="http://sodipodi.sourceforge.net/DTD/sodipodi-0.dtd"
   xmlns:inkscape="http://www.inkscape.org/namespaces/inkscape"
   id="svg4"
   version="1.1"
   viewBox="0 0 24 24"
   style="width:24px;height:24px"
   sodipodi:docname="font-base.svg"
   inkscape:version="0.92+devel (unknown)">
  <sodipodi:namedview
     pagecolor="#ffffff"
     bordercolor="#666666"
     inkscape:document-rotation="0"
     borderopacity="1"
     objecttolerance="10"
     gridtolerance="10"
     guidetolerance="10"
     inkscape:pageopacity="0"
     inkscape:pageshadow="2"
     inkscape:window-width="1920"
     inkscape:window-height="1011"
     id="namedview962"
     showgrid="false"
     inkscape:zoom="8.1875"
     inkscape:cx="105.55267"
     inkscape:cy="8.0458533"
     inkscape:window-x="0"
     inkscape:window-y="0"
     inkscape:window-maximized="1"
     inkscape:current-layer="svg4" />
  <metadata
     id="metadata10">
    <rdf:RDF>
      <cc:Work
         rdf:about="">
        <dc:format>image/svg+xml</dc:format>
        <dc:type
           rdf:resource="http://purl.org/dc/dcmitype/StillImage" />
        <dc:title />
      </cc:Work>
    </rdf:RDF>
  </metadata>
  <defs
     id="defs8" />
  <path
     style="fill:#45324d;fill-opacity:1"
     id="path2"
     d="M8.72 5C6.12 5 4 7.08 4 9.64c0 2.2 1.04 3.86 2.48 5.34 1.45 1.5 3.32 2.86 5.17 4.67L12 20l.35-.35c1.85-1.8 3.72-3.18 5.17-4.67C18.96 13.5 20 11.85 20 9.64 20 7.08 17.88 5 15.28 5c-1.25 0-2.4.56-3.28 1.42C11.12 5.56 9.97 5 8.72 5zm3.67 2.34c.7-.86 1.75-1.36 2.87-1.36C17.34 5.98 19 7.6 19 9.64c0 1.92-.84 3.27-2.2 4.66-1.27 1.3-3.03 2.65-4.8 4.34-1.77-1.7-3.53-3.04-4.8-4.34C5.85 12.9 5 11.56 5 9.64 5 7.6 6.66 5.98 8.72 5.98c1.12 0 2.18.5 2.9 1.36z"
     fill="#fff" />
  <rect
     y="0"
     x="24"
     height="24"
     width="24"
     id="rect867-3"
     style="font-variation-settings:normal;opacity:0.5;vector-effect:none;fill:#45324d;fill-opacity:1;stroke-width:1.88976383" />
  <path
     style="fill:#45324d;fill-opacity:1"
     id="path2-6"
     d="M 32.72,5 C 30.12,5 28,7.08 28,9.64 c 0,2.2 1.04,3.86 2.48,5.34 1.45,1.5 3.32,2.86 5.17,4.67 L 36,20 36.35,19.65 c 1.85,-1.8 3.72,-3.18 5.17,-4.67 C 42.96,13.5 44,11.85 44,9.64 44,7.08 41.88,5 39.28,5 38.03,5 36.88,5.56 36,6.42 35.12,5.56 33.97,5 32.72,5 Z"
     fill="#fff" />
  <rect
     style="font-variation-settings:normal;opacity:0.5;vector-effect:none;fill:#7d7d7d;fill-opacity:1;stroke-width:1.88976383"
     id="rect819"
     width="24"
     height="24"
     x="48"
     y="0" />
  <path
     inkscape:connector-curvature="0"
     fill="#fff"
     d="m 52,6 v 15 l 1,-1 3,-3 H 68 V 6 Z m 1,1 h 14 v 9 H 55.6 L 53,18.6 Z m 3,2 v 1 h 8 V 9 Z m 0,2 v 1 h 8 v -1 z m 0,2 v 1 h 6 v -1 z"
     id="path2-7"
     style="fill:#45324d;fill-opacity:1" />
  <rect
     style="font-variation-settings:normal;opacity:0.5;vector-effect:none;fill:#7d7d7d;fill-opacity:1;stroke-width:1.88976383"
     id="rect819-5"
     width="24"
     height="24"
     x="72"
     y="0" />
  <path
     style="fill:#45324d;fill-opacity:1"
     d="M 76 6 L 76 21 L 77 20 L 80 17 L 92 17 L 92 6 L 76 6 z M 80 9 L 88 9 L 88 10 L 80 10 L 80 9 z M 80 11 L 88 11 L 88 12 L 80 12 L 80 11 z M 80 13 L 86 13 L 86 14 L 80 14 L 80 13 z "
     id="path2-7-3" />
  <rect
     style="font-variation-settings:normal;opacity:0.5;vector-effect:none;fill:#000000;fill-opacity:0.43445315;stroke-width:1.88976383"
     id="rect821"
     width="24"
     height="24"
     x="96"
     y="0" />
  <path
     inkscape:connector-curvature="0"
     class="editpen"
     fill="rgba(210,210,210,.9)"
     d="m 112.94999,2.8 -0.2,0.2 -0.5,0.52 -2.13,2.12 -0.7,0.7 -10.419991,10.42 V 21 h 4.239991 l 1,-1 9.42,-9.4 0.7,-0.7199996 2.12,-2.1200004 0.52,-0.52 0.2,-0.2 -0.2,-0.18 -0.52,-0.52 -2.82,-2.82 -0.52,-0.52 -0.2,-0.2 z m 0,1.42 2.83,2.83 -2.12,2.12 -2.83,-2.83 z m -2.83,2.83 2.83,2.8300004 -7.95,7.9499996 V 17 h -2 v -2 h -0.83 z m -8.95,8.95 h 0.83 v 2 h 2 v 0.83 l -1.17,1.17 h -1.68 l -1.149991,-1.15 v -1.68 z"
     id="path2-5"
     style="fill:#45324d;fill-opacity:1" />
  <rect
     style="font-variation-settings:normal;opacity:0.5;vector-effect:none;fill:#000000;fill-opacity:0.43445315;stroke-width:1.88976383"
     id="rect821-6"
     width="24"
     height="24"
     x="120"
     y="0" />
  <path
     inkscape:connector-curvature="0"
     class="editpen"
     fill="rgba(210,210,210,.9)"
     d="m 136.94999,2.8 -0.2,0.2 -0.5,0.52 -2.13,2.12 -0.7,0.7 L 123,16.76 V 21 h 4.23999 l 1,-1 9.42,-9.4 0.7,-0.7199996 2.12,-2.1200004 0.52,-0.52 0.2,-0.2 -0.2,-0.18 -0.52,-0.52 -2.82,-2.82 -0.52,-0.52 -0.2,-0.2 z m 0,1.42 2.83,2.83 -2.12,2.12 -2.83,-2.83 z m -11.78,11.78 h 0.83 v 2 h 2 v 0.83 l -1.17,1.17 h -1.68 L 124,18.85 v -1.68 z"
     id="path2-5-2"
     sodipodi:nodetypes="ccccccccccccccccccccccccccccccccccc"
     style="fill:#45324d;fill-opacity:1" />
</svg>
