<?xml version="1.0" encoding="UTF-8" standalone="no"?>
<svg
   xmlns:dc="http://purl.org/dc/elements/1.1/"
   xmlns:cc="http://creativecommons.org/ns#"
   xmlns:rdf="http://www.w3.org/1999/02/22-rdf-syntax-ns#"
   xmlns:svg="http://www.w3.org/2000/svg"
   xmlns="http://www.w3.org/2000/svg"
   id="svg4"
   version="1.1"
   viewBox="0 0 24 24"
   style="width:24px;height:24px">
  <metadata
     id="metadata10">
    <rdf:RDF>
      <cc:Work
         rdf:about="">
        <dc:format>image/svg+xml</dc:format>
        <dc:type
           rdf:resource="http://purl.org/dc/dcmitype/StillImage" />
        <dc:title></dc:title>
      </cc:Work>
    </rdf:RDF>
  </metadata>
  <defs
     id="defs8" />
  <path
     style="fill:#45324d;fill-opacity:1"
     id="path2"
     d="M8.72 5C6.12 5 4 7.08 4 9.64c0 2.2 1.04 3.86 2.48 5.34 1.45 1.5 3.32 2.86 5.17 4.67L12 20l.35-.35c1.85-1.8 3.72-3.18 5.17-4.67C18.96 13.5 20 11.85 20 9.64 20 7.08 17.88 5 15.28 5c-1.25 0-2.4.56-3.28 1.42C11.12 5.56 9.97 5 8.72 5zm3.67 2.34c.7-.86 1.75-1.36 2.87-1.36C17.34 5.98 19 7.6 19 9.64c0 1.92-.84 3.27-2.2 4.66-1.27 1.3-3.03 2.65-4.8 4.34-1.77-1.7-3.53-3.04-4.8-4.34C5.85 12.9 5 11.56 5 9.64 5 7.6 6.66 5.98 8.72 5.98c1.12 0 2.18.5 2.9 1.36z"
     fill="#fff" />
</svg>
